<svg width="32" height="32" viewBox="0 0 32 32" fill="none" xmlns="http://www.w3.org/2000/svg">
  <defs>
    <linearGradient id="faviconGradient" x1="0%" y1="0%" x2="100%" y2="100%">
      <stop offset="0%" stop-color="#1F4E79" />
      <stop offset="100%" stop-color="#1CA9A3" />
    </linearGradient>
    <linearGradient id="faviconAccent" x1="0%" y1="0%" x2="100%" y2="100%">
      <stop offset="0%" stop-color="#1CA9A3" />
      <stop offset="100%" stop-color="#F28C28" />
    </linearGradient>
  </defs>

  <!-- Simplified building for favicon (32x32) -->
  <rect x="6" y="9" width="20" height="21" rx="1.5" fill="url(#faviconGradient)"/>

  <!-- Windows - left -->
  <rect x="9" y="12" width="3" height="3" rx="0.5" fill="white" opacity="0.9"/>
  <rect x="9" y="16.5" width="3" height="3" rx="0.5" fill="white" opacity="0.9"/>
  <rect x="9" y="21" width="3" height="3" rx="0.5" fill="white" opacity="0.9"/>

  <!-- Windows - right -->
  <rect x="20" y="12" width="3" height="3" rx="0.5" fill="white" opacity="0.9"/>
  <rect x="20" y="16.5" width="3" height="3" rx="0.5" fill="white" opacity="0.9"/>
  <rect x="20" y="21" width="3" height="3" rx="0.5" fill="white" opacity="0.9"/>

  <!-- Door -->
  <rect x="14" y="24" width="4" height="6" rx="0.5" fill="url(#faviconAccent)"/>

  <!-- Roof -->
  <path d="M5 9 L16 4 L27 9 L26 9 L16 5 L6 9 Z" fill="url(#faviconAccent)"/>
</svg>
