<svg width="240" height="64" viewBox="0 0 240 64" fill="none" xmlns="http://www.w3.org/2000/svg">
  <defs>
    <linearGradient id="logoGradient" x1="0%" y1="0%" x2="100%" y2="100%">
      <stop offset="0%" stop-color="#1F4E79" />
      <stop offset="100%" stop-color="#1CA9A3" />
    </linearGradient>
    <linearGradient id="logoGradientAccent" x1="0%" y1="0%" x2="100%" y2="100%">
      <stop offset="0%" stop-color="#1CA9A3" />
      <stop offset="100%" stop-color="#F28C28" />
    </linearGradient>
    <linearGradient id="textGradient" x1="0%" y1="0%" x2="100%" y2="0%">
      <stop offset="0%" stop-color="#1F4E79" />
      <stop offset="100%" stop-color="#1CA9A3" />
    </linearGradient>
  </defs>

  <!-- Logo Icon -->
  <g>
    <!-- Main building structure -->
    <rect x="12" y="18" width="40" height="42" rx="3" fill="url(#logoGradient)" opacity="0.95"/>

    <!-- Building windows - left side -->
    <rect x="18" y="24" width="6" height="6" rx="1" fill="white" opacity="0.9"/>
    <rect x="18" y="33" width="6" height="6" rx="1" fill="white" opacity="0.9"/>
    <rect x="18" y="42" width="6" height="6" rx="1" fill="white" opacity="0.9"/>

    <!-- Building windows - right side -->
    <rect x="40" y="24" width="6" height="6" rx="1" fill="white" opacity="0.9"/>
    <rect x="40" y="33" width="6" height="6" rx="1" fill="white" opacity="0.9"/>
    <rect x="40" y="42" width="6" height="6" rx="1" fill="white" opacity="0.9"/>

    <!-- Center entrance/door -->
    <rect x="28" y="48" width="8" height="12" rx="1" fill="url(#logoGradientAccent)"/>

    <!-- Roof/top accent -->
    <path
      d="M10 18 L32 8 L54 18 L52 18 L32 10 L12 18 Z"
      fill="url(#logoGradientAccent)"
    />

    <!-- Decorative layers -->
    <line x1="12" y1="30" x2="52" y2="30" stroke="white" stroke-width="0.5" opacity="0.3"/>
    <line x1="12" y1="39" x2="52" y2="39" stroke="white" stroke-width="0.5" opacity="0.3"/>
    <line x1="12" y1="48" x2="52" y2="48" stroke="white" stroke-width="0.5" opacity="0.3"/>
  </g>

  <!-- AVM Text -->
  <text x="76" y="44" font-family="-apple-system, BlinkMacSystemFont, 'SF Pro Display', sans-serif" font-size="36" font-weight="700" letter-spacing="-1.5" fill="url(#textGradient)">AVM</text>

  <!-- Property Management Text -->
  <text x="76" y="54" font-family="-apple-system, BlinkMacSystemFont, 'SF Pro Text', sans-serif" font-size="11" font-weight="500" letter-spacing="-0.2" fill="#666666">Property Management</text>
</svg>
